<?xml version="1.0" encoding="UTF-8"?>
<svg width="36px" height="36px" viewBox="0 0 36 36" version="1.1" xmlns="http://www.w3.org/2000/svg" xmlns:xlink="http://www.w3.org/1999/xlink">
    <title>Group</title>
    <g id="Page-1" stroke="none" stroke-width="1" fill="none" fill-rule="evenodd">
        <g id="Group">
            <polygon id="Path" fill="#9AAAB4" points="27.388 24.642 24.56 27.47 19.61 22.52 22.438 19.692"></polygon>
            <path d="M34.683,29.11 L28.804,23.231 C28.023,22.45 26.757,22.45 25.976,23.231 L23.148,26.059 C22.367,26.84 22.367,28.106 23.148,28.887 L29.027,34.766 C30.589,36.329 33.123,36.329 34.685,34.766 C36.245,33.205 36.244,30.672 34.683,29.11 Z" id="Path" fill="#66757F"></path>
            <path d="M13.586,0.169 C21.0418441,0.169 27.086,6.21315588 27.086,13.669 C27.086,21.1248441 21.0418441,27.169 13.586,27.169 C6.13015588,27.169 0.086,21.1248441 0.086,13.669 C0.086,6.21315588 6.13015588,0.169 13.586,0.169 Z M13.586,4.169 C8.33929488,4.169 4.086,8.42229488 4.086,13.669 C4.086,18.9157051 8.33929488,23.169 13.586,23.169 C18.8327051,23.169 23.086,18.9157051 23.086,13.669 C23.086,8.42229488 18.8327051,4.169 13.586,4.169 Z" id="Combined-Shape" fill="#8899A6"></path>
        </g>
    </g>
</svg>